<?xml version="1.0" encoding="utf-8"?>
<!-- Generator: Adobe Illustrator 19.2.1, SVG Export Plug-In . SVG Version: 6.00 Build 0)  -->
<svg version="1.1" id="Lager_2" xmlns="http://www.w3.org/2000/svg" xmlns:xlink="http://www.w3.org/1999/xlink" x="0px" y="0px"
	 viewBox="0 0 387.4 275.5" style="enable-background:new 0 0 387.4 275.5;" xml:space="preserve">
<style type="text/css">
	.st0{fill:#D6E0E5;stroke:#474F53;stroke-width:2;stroke-linecap:round;stroke-linejoin:round;stroke-miterlimit:10;}
	.st1{fill:#FFFFFF;stroke:#474F53;stroke-width:2;stroke-linecap:round;stroke-linejoin:round;stroke-miterlimit:10;}
	.st2{fill:#BFCAD1;stroke:#474F53;stroke-width:2;stroke-linecap:round;stroke-linejoin:round;stroke-miterlimit:10;}
	.st3{fill:#81AAD3;stroke:#474F53;stroke-width:2;stroke-linecap:round;stroke-linejoin:round;stroke-miterlimit:10;}
	.st4{fill:#91BEE2;stroke:#474F53;stroke-width:2;stroke-linecap:round;stroke-linejoin:round;stroke-miterlimit:10;}
	.st5{fill:#FFFFFF;stroke:#474F53;stroke-width:3;stroke-linecap:round;stroke-linejoin:round;stroke-miterlimit:10;}
	.st6{fill:none;stroke:#474F53;stroke-width:2;stroke-linecap:round;stroke-linejoin:round;stroke-miterlimit:10;}
	.st7{fill:#F79232;stroke:#474F53;stroke-width:2;stroke-linecap:round;stroke-linejoin:round;stroke-miterlimit:10;}
	.st8{fill:#F6C342;stroke:#474F53;stroke-width:2;stroke-linecap:round;stroke-linejoin:round;stroke-miterlimit:10;}
	.st9{fill:#61B5AF;stroke:#474F53;stroke-width:2;stroke-linecap:round;stroke-linejoin:round;stroke-miterlimit:10;}
	.st10{fill:#F691B2;stroke:#474F53;stroke-width:2;stroke-linecap:round;stroke-linejoin:round;stroke-miterlimit:10;}
	.st11{fill:#C6C6C6;stroke:#474F53;stroke-width:2;stroke-linecap:round;stroke-linejoin:round;stroke-miterlimit:10;}
	.st12{fill:#9D9D9C;stroke:#474F53;stroke-width:2;stroke-linecap:round;stroke-linejoin:round;stroke-miterlimit:10;}
	.st13{fill:#474F53;}
	.st14{fill:#549E99;stroke:#474F53;stroke-width:2;stroke-linecap:round;stroke-linejoin:round;stroke-miterlimit:10;}
	.st15{fill:#F9A45F;stroke:#474F53;stroke-width:2;stroke-linecap:round;stroke-linejoin:round;stroke-miterlimit:10;}
	.st16{fill:#E18831;stroke:#474F53;stroke-width:2;stroke-linecap:round;stroke-linejoin:round;stroke-miterlimit:10;}
	.st17{fill:#706F6F;stroke:#474F53;stroke-width:2;stroke-linecap:round;stroke-linejoin:round;stroke-miterlimit:10;}
	.st18{fill:#878787;stroke:#474F53;stroke-width:2;stroke-linecap:round;stroke-linejoin:round;stroke-miterlimit:10;}


	/* Animation */

	@keyframes rotationBrick {
		0% {
			transform: rotate(0deg)
		}
		25% {
			transform: rotate(5deg)
		}
		50% {
			transform: rotate(-4deg)
		}
		75% {
			transform: rotate(2deg)
		}
		90% {
			transform: rotate(-1deg)
			}
		100% {
			transform: rotate(0deg);
		}
	}

	#Brick_2_ {
		transform: rotate(0deg);
		animation: rotationBrick 10s ease-in-out infinite;
		transform-origin: 50% 0%;
	}

	@keyframes moveHook {
		0% {
			transform: translateX(0%);
		}
		25% {
			transform: translateX(12%);
		}
		50% {
			transform: translateX(12%);
		}
		90% {
			transform: translateX(-1%);
			}
		100% {
			transform: translateX(0%);
		}
	}

	#Crane_x5F_hook {
		transform: translateX(0%);
		animation: moveHook 10s ease-in-out infinite;
	}

</style>
<g>
	<path class="st0" d="M382.1,268.7H152.3c-2.9,0-5-2.9-4-5.7l11.7-32.3c0.6-1.7,2.2-2.8,4-2.8h206.3c1.8,0,3.4,1.1,4,2.8l11.7,32.3
		C387.1,265.8,385.1,268.7,382.1,268.7z"/>
	<polygon class="st1" points="177,231.9 168.6,231.9 166.5,237.9 175,237.9 	"/>
	<polygon class="st1" points="374.6,254.1 365.5,254.1 368.7,263.7 378.1,263.7 	"/>
	<polygon class="st1" points="368.7,237.9 366.5,231.9 358.1,231.9 360.1,237.9 	"/>
	<polygon class="st1" points="362.6,245.5 371.4,245.5 362.6,245.5 365.5,254.1 374.6,254.1 368.7,237.9 360.1,237.9 	"/>
	<polygon class="st1" points="362.6,245.5 360.1,237.9 351,237.9 353.3,245.5 	"/>
	<polygon class="st1" points="353.3,245.5 355.9,254.1 365.5,254.1 362.6,245.5 	"/>
	<polygon class="st1" points="360.1,237.9 358.1,231.9 349.2,231.9 351,237.9 	"/>
	<polygon class="st1" points="355.9,254.1 358.7,263.7 368.7,263.7 365.5,254.1 	"/>
	<polygon class="st1" points="172.5,245.5 163.7,245.5 160.6,254.1 169.7,254.1 179.3,254.1 181.9,245.5 	"/>
	<polygon class="st1" points="184.2,237.9 185.9,231.9 177,231.9 175,237.9 	"/>
	<polygon class="st1" points="175,237.9 166.5,237.9 163.7,245.5 172.5,245.5 181.9,245.5 184.2,237.9 	"/>
	<polygon class="st1" points="169.7,254.1 166.5,263.7 176.4,263.7 179.3,254.1 	"/>
	<polygon class="st1" points="193.5,237.9 195.1,231.9 185.9,231.9 184.2,237.9 	"/>
	<polygon class="st1" points="181.9,245.5 179.3,254.1 189.2,254.1 191.5,245.5 	"/>
	<polygon class="st1" points="191.5,245.5 193.5,237.9 184.2,237.9 181.9,245.5 	"/>
	<polygon class="st1" points="346,254.1 348.5,263.7 358.7,263.7 355.9,254.1 	"/>
	<polygon class="st1" points="353.3,245.5 351,237.9 341.7,237.9 343.7,245.5 	"/>
	<polygon class="st1" points="343.7,245.5 346,254.1 355.9,254.1 353.3,245.5 	"/>
	<polygon class="st1" points="351,237.9 349.2,231.9 340.1,231.9 341.7,237.9 	"/>
	<polygon class="st1" points="191.5,245.5 189.2,254.1 198.8,254.1 200.8,245.5 	"/>
	<polygon class="st1" points="200.8,245.5 202.6,237.9 193.5,237.9 191.5,245.5 	"/>
	<polygon class="st1" points="202.6,237.9 203.9,231.9 195.1,231.9 193.5,237.9 	"/>
	<polygon class="st1" points="210.8,237.9 212,231.9 203.9,231.9 202.6,237.9 	"/>
	<polygon class="st1" points="209.2,245.5 210.8,237.9 202.6,237.9 200.8,245.5 	"/>
	<polygon class="st1" points="200.8,245.5 198.8,254.1 207.5,254.1 209.2,245.5 	"/>
	<polygon class="st1" points="332.6,237.9 331.2,231.9 322.5,231.9 323.7,237.9 	"/>
	<polygon class="st1" points="334.4,245.5 332.6,237.9 323.7,237.9 325.2,245.5 	"/>
	<polygon class="st1" points="209.2,245.5 207.5,254.1 217.3,254.1 218.7,245.5 	"/>
	<polygon class="st1" points="218.7,245.5 220,237.9 210.8,237.9 209.2,245.5 	"/>
	<polygon class="st1" points="220,237.9 221,231.9 212,231.9 210.8,237.9 	"/>
	<polygon class="st1" points="334.4,245.5 325.2,245.5 315.7,245.5 317.2,254.1 327,254.1 336.4,254.1 	"/>
	<polygon class="st1" points="317.2,254.1 318.8,263.7 328.9,263.7 327,254.1 	"/>
	<polygon class="st1" points="325.2,245.5 323.7,237.9 314.4,237.9 315.7,245.5 	"/>
	<polygon class="st1" points="323.7,237.9 322.5,231.9 313.4,231.9 314.4,237.9 	"/>
	<polygon class="st1" points="305.7,245.5 306.9,254.1 317.2,254.1 315.7,245.5 	"/>
	<polygon class="st1" points="314.4,237.9 313.4,231.9 303.9,231.9 304.7,237.9 	"/>
	<polygon class="st1" points="315.7,245.5 314.4,237.9 304.7,237.9 305.7,245.5 	"/>
	<polygon class="st1" points="228.8,245.5 229.8,237.9 220,237.9 218.7,245.5 	"/>
	<polygon class="st1" points="229.8,237.9 230.6,231.9 221,231.9 220,237.9 	"/>
	<polygon class="st1" points="218.7,245.5 217.3,254.1 227.6,254.1 228.8,245.5 	"/>
	<polygon class="st1" points="305.7,245.5 304.7,237.9 295.8,237.9 296.6,245.5 	"/>
	<polygon class="st1" points="304.7,237.9 303.9,231.9 295.2,231.9 295.8,237.9 	"/>
	<polygon class="st1" points="296.6,245.5 297.5,254.1 306.9,254.1 305.7,245.5 	"/>
	<polygon class="st1" points="228.8,245.5 227.6,254.1 237,254.1 237.9,245.5 	"/>
	<polygon class="st1" points="238.7,237.9 239.3,231.9 230.6,231.9 229.8,237.9 	"/>
	<polygon class="st1" points="237.9,245.5 238.7,237.9 229.8,237.9 228.8,245.5 	"/>
	<polygon class="st1" points="247.6,237.9 248,231.9 239.3,231.9 238.7,237.9 	"/>
	<polygon class="st1" points="247.1,245.5 247.6,237.9 238.7,237.9 237.9,245.5 	"/>
	<polygon class="st1" points="237.9,245.5 237,254.1 246.5,254.1 247.1,245.5 	"/>
	<polygon class="st1" points="296.6,245.5 295.8,237.9 286.8,237.9 287.4,245.5 	"/>
	<polygon class="st1" points="287.4,245.5 288,254.1 297.5,254.1 296.6,245.5 	"/>
	<polygon class="st1" points="295.8,237.9 295.2,231.9 286.4,231.9 286.8,237.9 	"/>
	<polygon class="st1" points="256.9,245.5 257.2,237.9 247.6,237.9 247.1,245.5 	"/>
	<polygon class="st1" points="247.1,245.5 246.5,254.1 256.6,254.1 256.9,245.5 	"/>
	<polygon class="st1" points="257.2,237.9 257.4,231.9 248,231.9 247.6,237.9 	"/>
	<polygon class="st1" points="278.2,245.5 278.5,254.1 288,254.1 287.4,245.5 	"/>
	<polygon class="st1" points="287.4,245.5 286.8,237.9 277.9,237.9 278.2,245.5 	"/>
	<polygon class="st1" points="286.8,237.9 286.4,231.9 277.7,231.9 277.9,237.9 	"/>
	<polygon class="st1" points="256.9,245.5 256.6,254.1 267.6,254.1 267.6,245.5 	"/>
	<polygon class="st1" points="267.6,245.5 267.6,237.9 257.2,237.9 256.9,245.5 	"/>
	<polygon class="st1" points="267.6,237.9 267.6,231.9 257.4,231.9 257.2,237.9 	"/>
	<polygon class="st1" points="278.2,245.5 277.9,237.9 267.6,237.9 267.6,245.5 	"/>
	<polygon class="st1" points="277.9,237.9 277.7,231.9 267.6,231.9 267.6,237.9 	"/>
	<polygon class="st1" points="267.6,245.5 267.6,254.1 278.5,254.1 278.2,245.5 	"/>
	<polygon class="st1" points="317.2,254.1 306.9,254.1 297.5,254.1 288,254.1 278.5,254.1 267.6,254.1 256.6,254.1 246.5,254.1 
		237,254.1 227.6,254.1 217.3,254.1 207.5,254.1 198.8,254.1 189.2,254.1 179.3,254.1 176.4,263.7 186.7,263.7 196.5,263.7 
		205.5,263.7 215.7,263.7 226.3,263.7 236,263.7 245.8,263.7 256.3,263.7 267.6,263.7 278.9,263.7 288.7,263.7 298.4,263.7 
		308.2,263.7 318.8,263.7 	"/>
	<path class="st2" d="M386.4,270.3c0,2.2-1.8,4.2-4.2,4.2H152.3c-2.4,0-4.2-2-4.2-4.2l0,0v-5.8l0,0c0,2.2,1.8,4.2,4.2,4.2h229.8
		c2.4,0,4.2-2,4.2-4.2l0,0L386.4,270.3z"/>
</g>
<g>
	<path class="st3" d="M99.6,227.4v7.3l-6.6-3.9c-1.2-0.7-1.9-2-1.9-3.3l0,0v-7.4"/>
	<path class="st4" d="M93.9,216.4l-0.9,0.6c-2.5,1.5-2.4,5.1,0,6.5l6.6,3.9l11.7-7.1l-6.6-3.9C101.4,214.4,97.2,214.4,93.9,216.4z"
		/>
	<polygon class="st3" points="99.6,227.4 99.6,234.7 111.3,227.6 111.3,220.3 	"/>
	<line class="st5" x1="103.6" y1="229.1" x2="108.8" y2="232.2"/>
	<line class="st5" x1="108" y1="226.1" x2="113.2" y2="229.2"/>
	<path class="st3" d="M110.6,234.2v7.3l7.6,4.5c2.7,1.6,6.1,1.6,8.8,0l1.9-1.1c1.2-0.7,1.8-2,1.8-3.3l0,0l0-7.4"/>
	<path class="st4" d="M122.4,227.1l-11.7,7.1l7.6,4.5c2.7,1.6,6.1,1.6,8.8,0l1.9-1.1c2.5-1.5,2.4-5.1,0-6.5L122.4,227.1z"/>
	<path class="st6" d="M82.5,207.7c0,0,3.9-0.4,7.1,0c4.6,0.6-2.9,5.1,3.5,9.2"/>
	<path class="st6" d="M127.4,242.1c1.8,0.4,3.5,1.4,4.8,2.8c1.9,2.1,2.7,5.4,1.3,7.9s-4.6,4.4-7.2,1.3c-1.7-3.3,5.6-7.3,6.9-8.6
		c17.6-17,28.9-28.5,53.8-29.9c18.4-1,55.4-0.5,61,12.4"/>
</g>
<rect x="213.7" y="184.8" class="st3" width="32.8" height="15.7"/>
<rect x="148.1" y="121.9" class="st3" width="32.8" height="15.7"/>
<rect x="131.7" y="137.6" class="st7" width="32.8" height="15.7"/>
<rect x="180.9" y="137.6" class="st3" width="32.8" height="15.7"/>
<rect x="180.9" y="184.8" class="st3" width="32.8" height="15.7"/>
<rect x="197.3" y="106.2" class="st8" width="32.8" height="15.7"/>
<rect x="197.3" y="169.1" class="st9" width="32.8" height="15.7"/>
<rect x="213.7" y="137.6" class="st3" width="32.8" height="15.7"/>
<rect x="164.5" y="169.1" class="st8" width="32.8" height="15.7"/>
<rect x="164.5" y="137.6" class="st3" width="16.4" height="15.7"/>
<rect x="164.5" y="184.8" class="st9" width="16.4" height="15.7"/>
<rect x="230.1" y="106.2" class="st3" width="16.4" height="15.7"/>
<rect x="230.1" y="90.4" class="st3" width="16.4" height="15.7"/>
<rect x="230.1" y="74.7" class="st3" width="16.4" height="15.7"/>
<rect x="82.5" y="184.8" class="st9" width="16.4" height="15.7"/>
<rect x="82.5" y="137.6" class="st3" width="16.4" height="31.5"/>
<rect x="98.9" y="137.6" class="st3" width="32.8" height="15.7"/>
<path class="st8" d="M209.3,106.2h-7.6v-3.8c0-0.6,0.4-1,1-1h5.6c0.6,0,1,0.4,1,1V106.2z"/>
<path class="st8" d="M225.7,106.2h-7.6v-3.8c0-0.6,0.4-1,1-1h5.6c0.6,0,1,0.4,1,1V106.2z"/>
<rect x="230.1" y="90.4" class="st10" width="32.8" height="15.7"/>
<path class="st10" d="M258.5,90.4h-7.6v-3.8c0-0.6,0.4-1,1-1h5.6c0.6,0,1,0.4,1,1V90.4z"/>
<path class="st3" d="M242.1,74.7h-7.6v-3.8c0-0.6,0.4-1,1-1h5.6c0.6,0,1,0.4,1,1V74.7z"/>
<rect x="230.1" y="169.1" class="st3" width="16.4" height="15.7"/>
<path class="st3" d="M242.1,169.1h-7.6v-3.8c0-0.6,0.4-1,1-1h5.6c0.6,0,1,0.4,1,1V169.1z"/>
<rect x="82.5" y="121.9" class="st9" width="65.6" height="15.7"/>
<rect x="164.5" y="153.4" class="st9" width="65.6" height="15.7"/>
<rect x="180.9" y="121.9" class="st9" width="65.6" height="15.7"/>
<path class="st3" d="M160.1,121.9h-7.6v-3.8c0-0.6,0.4-1,1-1h5.6c0.6,0,1,0.4,1,1V121.9z"/>
<path class="st3" d="M176.5,121.9h-7.6v-3.8c0-0.6,0.4-1,1-1h5.6c0.6,0,1,0.4,1,1V121.9z"/>
<path class="st3" d="M127.3,184.8h-7.6V181c0-0.6,0.4-1,1-1h5.6c0.6,0,1,0.4,1,1V184.8z"/>
<rect x="82.5" y="169.1" class="st10" width="32.8" height="15.7"/>
<path class="st10" d="M110.8,169.1h-7.6v-3.8c0-0.6,0.4-1,1-1h5.6c0.6,0,1,0.4,1,1V169.1z"/>
<path class="st9" d="M94.4,121.9h-7.6v-3.8c0-0.6,0.4-1,1-1h5.6c0.6,0,1,0.4,1,1V121.9z"/>
<path class="st9" d="M110.8,121.9h-7.6v-3.8c0-0.6,0.4-1,1-1h5.6c0.6,0,1,0.4,1,1V121.9z"/>
<path class="st9" d="M127.3,121.9h-7.6v-3.8c0-0.6,0.4-1,1-1h5.6c0.6,0,1,0.4,1,1V121.9z"/>
<path class="st9" d="M143.7,121.9h-7.6v-3.8c0-0.6,0.4-1,1-1h5.6c0.6,0,1,0.4,1,1V121.9z"/>
<polyline class="st6" points="52.1,50.9 39.8,68.6 52.1,86.3 39.8,104.1 52.1,121.8 39.8,139.5 52.1,157.2 39.8,175 52.1,192.7 "/>
<polygon class="st6" points="168.9,42.3 18.2,42.3 18.2,32.1 158.9,32.1 "/>
<polyline class="st6" points="158.9,32.1 158.9,32.1 148.8,42.3 138.7,32.1 128.7,42.3 118.6,32.1 108.6,42.3 98.5,32.1 88.5,42.3 
	78.4,32.1 68.3,42.3 58.3,32.1 48.2,42.3 38.2,32.1 28.1,42.2 18.1,32.2 "/>
<rect x="39.8" y="50.9" class="st6" width="12.4" height="141.8"/>
<rect x="1" y="28.3" transform="matrix(-1 -5.923630e-11 5.923630e-11 -1 21.0847 73.9306)" class="st11" width="19.1" height="17.4"/>
<line class="st6" x1="62.5" y1="39.1" x2="43" y2="1"/>
<line class="st6" x1="43" y1="1" x2="30.7" y2="24.9"/>
<rect x="30.7" y="24.9" class="st1" width="31.9" height="25.5"/>
<polyline class="st6" points="1,28.3 43,1 138.9,32.1 "/>
<polyline class="st6" points="39.8,50.9 52.1,68.6 39.8,86.3 52.1,104.1 39.8,121.8 52.1,139.5 39.8,157.2 52.1,175 39.8,192.7 "/>
<rect x="62.5" y="42.3" class="st3" width="109.4" height="3.8"/>
<rect x="36.4" y="84.6" class="st3" width="19.1" height="3.8"/>
<rect x="36.4" y="120.1" class="st3" width="19.1" height="3.8"/>
<rect x="36.4" y="155.6" class="st3" width="19.1" height="3.8"/>
<polygon class="st11" points="30.9,192.7 62.9,192.7 78.8,205.6 30.9,205.6 "/>
<rect x="28.6" y="205.6" class="st12" width="53.9" height="4.1"/>
<g>
	<path class="st13" d="M36.8,39v-1.1c0-0.2,0.1-0.3,0.2-0.4c1.1-0.4,3.9-1.6,5.3-2.1c0.3-0.1,0.5,0.1,0.5,0.4v1.1
		c0,0.2-0.1,0.3-0.2,0.4c-0.8,0.3-2.6,1-3,1.2c0.5,0.2,2.3,0.8,3,1.1c0.2,0.1,0.3,0.2,0.3,0.4v1.1c0,0.3-0.3,0.5-0.5,0.4
		c-1.4-0.5-4.2-1.7-5.3-2.1C36.9,39.3,36.8,39.1,36.8,39z"/>
	<path class="st13" d="M44,41.8l3.3-8.6c0.1-0.2,0.3-0.3,0.5-0.2l1.1,0.3c0.2,0.1,0.3,0.3,0.3,0.5l-3.4,8.6
		c-0.1,0.2-0.3,0.3-0.5,0.2l-1.1-0.3C44,42.2,43.9,42,44,41.8z"/>
	<path class="st13" d="M56.4,37.9V39c0,0.2-0.1,0.3-0.2,0.4c-1.1,0.4-3.9,1.6-5.3,2.1c-0.3,0.1-0.5-0.1-0.5-0.4V40
		c0-0.2,0.1-0.3,0.3-0.4c0.8-0.3,2.5-1,3-1.1c-0.5-0.2-2.3-0.9-3-1.2c-0.2-0.1-0.2-0.2-0.2-0.4v-1.1c0-0.3,0.3-0.5,0.5-0.4
		c1.4,0.5,4.2,1.7,5.3,2.1C56.3,37.6,56.4,37.7,56.4,37.9z"/>
</g>
<g id="Crane_x5F_hook">
	
		<rect x="115.8" y="39.6" transform="matrix(-1 -4.485890e-11 4.485890e-11 -1 257.7196 88.9812)" class="st1" width="26.2" height="9.7"/>
	<polyline class="st6" points="121.9,49.3 128.9,60.2 135.9,49.3 	"/>
	<path class="st6" d="M125,67.7c0,2.1,1.7,3.9,3.9,3.9c2.1,0,3.9-1.7,3.9-3.9c0-2.1-1.7-3.9-3.9-3.9v-7.6"/>
	<g id="Brick_2_">
		<polyline class="st6" points="150,91.3 128.9,70.9 107.8,91.3 		"/>
		<rect x="96.1" y="91.3" class="st3" width="65.6" height="15.7"/>
		<path class="st3" d="M108,91.3h-7.6v-3.8c0-0.6,0.4-1,1-1h5.6c0.6,0,1,0.4,1,1V91.3z"/>
		<path class="st3" d="M124.5,91.3h-7.6v-3.8c0-0.6,0.4-1,1-1h5.6c0.6,0,1,0.4,1,1V91.3z"/>
		<path class="st3" d="M140.9,91.3h-7.6v-3.8c0-0.6,0.4-1,1-1h5.6c0.6,0,1,0.4,1,1V91.3z"/>
		<path class="st3" d="M157.3,91.3h-7.6v-3.8c0-0.6,0.4-1,1-1h5.6c0.6,0,1,0.4,1,1V91.3z"/>
	</g>
</g>
<rect x="98.9" y="184.8" class="st3" width="65.6" height="15.7"/>
<path class="st3" d="M143.7,184.8h-7.6V181c0-0.6,0.4-1,1-1h5.6c0.6,0,1,0.4,1,1V184.8z"/>
<path class="st3" d="M160.1,184.8h-7.6V181c0-0.6,0.4-1,1-1h5.6c0.6,0,1,0.4,1,1V184.8z"/>
<g>
	<polygon class="st9" points="59.8,227.1 48.7,233.7 37.7,240.3 48.7,246.9 59.8,240.3 70.9,233.7 	"/>
	<polygon class="st14" points="59.8,240.3 48.7,246.9 48.7,259.5 59.8,252.9 70.9,246.2 70.9,233.7 	"/>
	<polygon class="st14" points="37.7,240.3 37.7,252.9 48.7,259.5 48.7,246.9 	"/>
	<path class="st14" d="M53.1,239.1c0,1.3-2,2.3-4.4,2.3c-2.4,0-4.4-1-4.4-2.3v-4.2c0,1.3,2,2.3,4.4,2.3c2.4,0,4.4-1,4.4-2.3V239.1z"
		/>
	<ellipse class="st9" cx="48.7" cy="235.1" rx="4.4" ry="2.3"/>
	<path class="st14" d="M64.2,232.5c0,1.3-2,2.3-4.4,2.3c-2.4,0-4.4-1-4.4-2.3v-4.2c0,1.3,2,2.3,4.4,2.3c2.4,0,4.4-1,4.4-2.3V232.5z"
		/>
	<ellipse class="st9" cx="59.8" cy="228.5" rx="4.4" ry="2.3"/>
</g>
<g>
	<polygon class="st4" points="316.5,134.9 297.6,146.1 325.7,162.9 344.6,151.7 	"/>
	<polygon class="st3" points="325.7,162.9 325.7,189.7 351.6,174.2 351.6,159.7 344.6,151.7 	"/>
	<polygon class="st3" points="297.6,146.1 297.6,173 325.7,189.7 325.7,162.9 	"/>
	<polygon class="st15" points="302.4,137.1 330.5,153.9 325.7,156.7 297.6,139.9 	"/>
	<polygon class="st16" points="297.6,139.9 259.1,162.9 235.1,185.9 263.2,202.7 287.2,179.7 325.7,156.7 	"/>
	<line class="st6" x1="297.6" y1="164.3" x2="325.7" y2="181.1"/>
	
		<rect x="261.7" y="191.9" transform="matrix(-0.3153 0.949 -0.949 -0.3153 537.9286 3.0834)" class="st9" width="12.2" height="7.4"/>
	<rect x="256.2" y="185.6" class="st9" width="12.2" height="7.4"/>
	<polygon class="st15" points="241.3,197.9 297.6,164.3 297.6,139.9 259.1,162.9 235.1,185.9 	"/>
	
		<rect x="246.2" y="179.9" transform="matrix(-0.9824 0.1866 -0.1866 -0.9824 534.3559 316.7957)" class="st9" width="12.2" height="7.4"/>
	
		<rect x="248.6" y="186.7" transform="matrix(-0.3153 0.949 -0.949 -0.3153 515.6375 8.7099)" class="st9" width="12.2" height="7.4"/>
	<rect x="242.4" y="187" transform="matrix(-0.866 -0.5 0.5 -0.866 368.4088 480.0347)" class="st9" width="12.2" height="7.4"/>
	
		<rect x="254.7" y="193.2" transform="matrix(-0.2011 0.9796 -0.9796 -0.2011 506.1026 -18.9177)" class="st9" width="12.2" height="7.4"/>
	<g>
		<path class="st17" d="M314.8,193.2c-0.8,3.6-4.1,6.7-7.3,6.9c-3.2,0.2-5.2-2.5-4.4-6.1c0.8-3.6,4.1-6.7,7.3-6.9
			C313.6,186.8,315.6,189.6,314.8,193.2z"/>
		<path class="st18" d="M318.3,195.9c-0.8,3.6-4.1,6.7-7.3,6.9c-3.2,0.2-5.2-2.5-4.4-6.1c0.8-3.6,4.1-6.7,7.3-6.9
			C317.2,189.6,319.1,192.3,318.3,195.9z"/>
		<path class="st18" d="M313.1,196.3c-0.1,0.4-0.4,0.7-0.8,0.8c-0.4,0-0.6-0.3-0.5-0.7c0.1-0.4,0.4-0.7,0.8-0.8
			C313,195.6,313.2,195.9,313.1,196.3z"/>
		<line class="st4" x1="313.4" y1="187.9" x2="316.9" y2="190.7"/>
		<line class="st4" x1="304.4" y1="199.2" x2="307.9" y2="202"/>
	</g>
	<g>
		<path class="st17" d="M294.2,205.3c-0.8,3.6-4.1,6.7-7.3,6.9c-3.2,0.2-5.2-2.5-4.4-6.1c0.8-3.6,4.1-6.7,7.3-6.9
			C293.1,199,295,201.7,294.2,205.3z"/>
		<path class="st18" d="M297.7,208.1c-0.8,3.6-4.1,6.7-7.3,6.9c-3.2,0.2-5.2-2.5-4.4-6.1c0.8-3.6,4.1-6.7,7.3-6.9
			C296.6,201.7,298.6,204.5,297.7,208.1z"/>
		<path class="st18" d="M292.5,208.4c-0.1,0.4-0.4,0.7-0.8,0.8c-0.4,0-0.6-0.3-0.5-0.7s0.4-0.7,0.8-0.8
			C292.4,207.7,292.6,208,292.5,208.4z"/>
		<line class="st4" x1="292.8" y1="200" x2="296.4" y2="202.8"/>
		<line class="st4" x1="283.8" y1="211.3" x2="287.4" y2="214.1"/>
	</g>
	<polygon class="st16" points="235.1,185.9 241.3,197.9 269.4,214.6 263.2,202.7 	"/>
	<polygon class="st1" points="336.7,156.3 336.7,168.6 351.6,159.7 344.6,151.7 	"/>
	<path class="st18" d="M346.4,182c-1.1,3.5-4.5,6.4-7.8,6.4c-3.3,0-5-2.9-4-6.4c1.1-3.5,4.6-6.4,7.8-6.4
		C345.7,175.6,347.5,178.4,346.4,182z"/>
	<path class="st18" d="M341.2,182c-0.1,0.4-0.5,0.7-0.8,0.7c-0.4,0-0.5-0.3-0.4-0.7c0.1-0.4,0.5-0.7,0.8-0.7
		C341.1,181.3,341.3,181.6,341.2,182z"/>
	
		<rect x="287.2" y="154.3" transform="matrix(0.949 0.3153 -0.3153 0.949 64.7613 -84.4298)" class="st9" width="12.2" height="7.4"/>
	
		<rect x="275.4" y="179.3" transform="matrix(-0.3153 0.949 -0.949 -0.3153 543.834 -26.5142)" class="st9" width="12.2" height="7.4"/>
	<rect x="278.1" y="158" transform="matrix(0.866 -0.5 0.5 0.866 -42.7768 163.7953)" class="st9" width="12.2" height="7.4"/>
	
		<rect x="267.4" y="159.4" transform="matrix(0.9824 -0.1866 0.1866 0.9824 -25.6243 53.9029)" class="st9" width="12.2" height="7.4"/>
	
		<rect x="255.3" y="172.3" transform="matrix(-0.8283 0.5603 -0.5603 -0.8283 576.5101 175.3529)" class="st9" width="12.2" height="7.4"/>
	<rect x="274.1" y="173.1" transform="matrix(-0.866 0.5 -0.5 -0.866 611.3237 189.7848)" class="st9" width="12.2" height="7.4"/>
	<rect x="292.3" y="167.9" transform="matrix(-0.866 0.5 -0.5 -0.866 642.6099 170.9653)" class="st9" width="12.2" height="7.4"/>
	<rect x="282.3" y="162.7" transform="matrix(-0.866 0.5 -0.5 -0.866 621.3093 166.3666)" class="st9" width="12.2" height="7.4"/>
	
		<rect x="261.7" y="165.8" transform="matrix(-0.7616 -0.648 0.648 -0.7616 362.0259 472.129)" class="st9" width="12.2" height="7.4"/>
	
		<rect x="263.3" y="173.4" transform="matrix(-0.9824 0.1866 -0.1866 -0.9824 567.1856 300.7599)" class="st9" width="12.2" height="7.4"/>
	
		<rect x="272.8" y="165.2" transform="matrix(-0.9993 3.651452e-02 -3.651452e-02 -0.9993 563.7626 327.4749)" class="st9" width="12.2" height="7.4"/>
	
		<rect x="295.9" y="159.2" transform="matrix(-0.9965 -8.357653e-02 8.357653e-02 -0.9965 589.3922 350.4992)" class="st9" width="12.2" height="7.4"/>
	
		<rect x="290.2" y="160.6" transform="matrix(0.1866 0.9824 -0.9824 0.1866 402.4331 -157.54)" class="st9" width="12.2" height="7.4"/>
	
		<rect x="284" y="169.2" transform="matrix(-0.3153 0.949 -0.949 -0.3153 545.615 -47.9631)" class="st9" width="12.2" height="7.4"/>
	
		<rect x="266.8" y="181.5" transform="matrix(-0.3153 0.949 -0.949 -0.3153 534.7167 -15.3823)" class="st9" width="12.2" height="7.4"/>
	
		<rect x="258.6" y="179.9" transform="matrix(-0.9993 3.651452e-02 -3.651452e-02 -0.9993 536.0414 357.312)" class="st9" width="12.2" height="7.4"/>
	<polygon class="st15" points="263.2,202.7 269.4,214.6 325.7,181.1 325.7,156.7 287.2,179.7 	"/>
</g>
</svg>
